<svg xmlns="http://www.w3.org/2000/svg" version="1.1" xmlns:xlink="http://www.w3.org/1999/xlink" xmlns:svgjs="http://svgjs.dev/svgjs" width="2000" height="1317" viewBox="0 0 2000 1317"><g transform="matrix(1,0,0,1,-0.05818036830817164,0.5331983805667733)"><svg viewBox="0 0 375 247" data-background-color="#e7eaef" preserveAspectRatio="xMidYMid meet" height="1317" width="2000" xmlns="http://www.w3.org/2000/svg" xmlns:xlink="http://www.w3.org/1999/xlink"><g id="tight-bounds" transform="matrix(1,0,0,1,0.010908819057789287,-0.09999999999999432)"><svg viewBox="0 0 374.9781823618844 247.2" height="247.2" width="374.9781823618844"><g><svg viewBox="0 0 395.5199999999999 260.74195406292074" height="247.2" width="374.9781823618844"><g transform="matrix(1,0,0,1,0,193.28573742446218)"><svg viewBox="0 0 395.5199999999999 67.45621663845853" height="67.45621663845853" width="395.5199999999999"><g id="textblocktransform"><svg viewBox="0 0 395.5199999999999 67.45621663845853" height="67.45621663845853" width="395.5199999999999" id="textblock"><g><svg viewBox="0 0 395.5199999999999 67.45621663845853" height="67.45621663845853" width="395.5199999999999"><g transform="matrix(1,0,0,1,0,0)"><svg width="395.5199999999999" viewBox="2.37 -31.69 187.5 31.98" height="67.45621663845853" data-palette-color="#fc8b5e"><path d="M5.52-19.19L5.52 0 2.37 0 2.37-23.75 5.52-23.75 5.52-21.53 6.2-21.53Q6.84-22.75 7.89-23.41 8.94-24.07 10.5-24.07L10.5-24.07Q12.84-24.07 13.98-22.84 15.11-21.61 15.11-18.58L15.11-18.58Q15.11-17.92 15.06-17.02 15.01-16.11 14.92-15.41L14.92-15.41 11.89-15.41Q11.94-15.65 11.95-16.26 11.96-16.87 11.98-17.48 11.99-18.09 11.99-18.31L11.99-18.31Q11.99-20.12 11.38-20.76 10.77-21.41 9.42-21.41L9.42-21.41Q6.57-21.41 5.52-19.19L5.52-19.19ZM26.05 0.29L26.05 0.29Q22.07 0.29 20.43-1.07 18.8-2.44 18.67-5.62L18.67-5.62Q18.53-7.42 18.48-9.63 18.43-11.84 18.48-14.09 18.53-16.33 18.67-18.16L18.67-18.16Q18.8-21.34 20.44-22.71 22.09-24.07 26.05-24.07L26.05-24.07Q30.05-24.07 31.65-22.71 33.25-21.34 33.37-18.16L33.37-18.16Q33.52-16.36 33.57-14.15 33.62-11.94 33.57-9.7 33.52-7.47 33.37-5.62L33.37-5.62Q33.25-2.47 31.65-1.09 30.05 0.29 26.05 0.29ZM26.05-2.44L26.05-2.44Q28.29-2.44 29.25-2.99 30.2-3.54 30.27-4.81L30.27-4.81Q30.52-8.62 30.52-11.89 30.52-15.16 30.27-18.97L30.27-18.97Q30.2-20.26 29.27-20.8 28.34-21.34 26.05-21.34L26.05-21.34Q23.75-21.34 22.81-20.8 21.87-20.26 21.8-18.97L21.8-18.97Q21.58-15.16 21.57-11.88 21.56-8.59 21.8-4.81L21.8-4.81Q21.85-3.54 22.84-2.99 23.83-2.44 26.05-2.44ZM52.12-23.75L47.36 0 40.79 0 36.27-23.75 39.55-23.75 41.4-11.82 43.13-2.71 45.01-2.71 46.85-11.82 48.82-23.75 52.12-23.75ZM62.49 0.29L62.49 0.29Q58.46 0.29 56.74-0.98 55.02-2.25 54.9-5.13L54.9-5.13Q54.8-6.93 54.77-9.38 54.73-11.82 54.77-14.28 54.8-16.75 54.9-18.58L54.9-18.58Q55.02-21.53 56.79-22.8 58.56-24.07 62.49-24.07L62.49-24.07Q66.2-24.07 67.86-22.83 69.52-21.58 69.69-18.73L69.69-18.73Q69.74-17.87 69.79-15.75 69.84-13.62 69.65-11.23L69.65-11.23 57.95-11.23Q57.95-9.69 57.98-8.11 58-6.52 58.07-4.81L58.07-4.81Q58.1-3.47 59.1-2.95 60.1-2.44 62.39-2.44L62.39-2.44Q64.67-2.44 65.59-2.95 66.52-3.47 66.62-4.81L66.62-4.81Q66.69-6.15 66.62-8.47L66.62-8.47 69.65-8.47Q69.77-7.76 69.76-6.82 69.74-5.88 69.69-5.13L69.69-5.13Q69.52-2.25 67.95-0.98 66.37 0.29 62.49 0.29ZM57.95-13.82L57.95-13.82 66.67-13.82Q66.72-15.48 66.72-16.99 66.72-18.51 66.62-19.07L66.62-19.07Q66.52-20.29 65.57-20.81 64.62-21.34 62.49-21.34L62.49-21.34Q60.12-21.34 59.11-20.81 58.1-20.29 58.07-19.07L58.07-19.07Q58-17.65 57.96-16.36 57.93-15.06 57.95-13.82ZM89.1 0.27L89.1 0.27Q86.12 0.27 84.69-0.9 83.26-2.08 83.02-4.57L83.02-4.57Q83-5.05 82.96-5.54 82.92-6.03 82.97-6.49L82.97-6.49Q83.14-8.67 84.34-10.14 85.53-11.62 88.88-12.84L88.88-12.84Q90.25-13.33 91.76-13.72 93.27-14.11 94.76-14.48L94.76-14.48 94.76-18.99Q94.76-20.19 93.86-20.76 92.96-21.34 90.71-21.34L90.71-21.34Q88.76-21.34 87.74-20.85 86.73-20.36 86.63-19.07L86.63-19.07Q86.58-18.46 86.58-17.32 86.58-16.19 86.63-15.41L86.63-15.41 83.58-15.41Q83.53-16.02 83.48-16.99 83.43-17.97 83.51-18.73L83.51-18.73Q83.63-21.56 85.35-22.81 87.07-24.07 90.83-24.07L90.83-24.07Q94.76-24.07 96.29-22.71 97.81-21.34 97.84-18.21L97.84-18.21 97.84 0 94.76 0 94.76-2.25 94.08-2.25Q93.47-1.03 92.33-0.38 91.2 0.27 89.1 0.27ZM89.88-2.37L89.88-2.37Q93.4-2.37 94.74-4.47L94.74-4.47 94.74-11.87Q93.57-11.62 92.33-11.29 91.1-10.96 89.44-10.4L89.44-10.4Q87.46-9.67 86.8-8.72 86.14-7.76 86.05-6.49L86.05-6.49Q86.07-6.13 86.08-5.7 86.1-5.27 86.14-4.81L86.14-4.81Q86.32-3.64 87.32-3 88.32-2.37 89.88-2.37ZM105.55-19.19L105.55 0 102.4 0 102.4-23.75 105.55-23.75 105.55-21.53 106.24-21.53Q106.87-22.75 107.92-23.41 108.97-24.07 110.53-24.07L110.53-24.07Q112.88-24.07 114.01-22.84 115.15-21.61 115.15-18.58L115.15-18.58Q115.15-17.92 115.1-17.02 115.05-16.11 114.95-15.41L114.95-15.41 111.92-15.41Q111.97-15.65 111.98-16.26 112-16.87 112.01-17.48 112.02-18.09 112.02-18.31L112.02-18.31Q112.02-20.12 111.41-20.76 110.8-21.41 109.46-21.41L109.46-21.41Q106.6-21.41 105.55-19.19L105.55-19.19ZM126.08 0.29L126.08 0.29Q122.1 0.29 120.47-1.07 118.83-2.44 118.71-5.62L118.71-5.62Q118.56-7.42 118.51-9.63 118.46-11.84 118.51-14.09 118.56-16.33 118.71-18.16L118.71-18.16Q118.83-21.34 120.48-22.71 122.13-24.07 126.08-24.07L126.08-24.07Q130.09-24.07 131.68-22.71 133.28-21.34 133.41-18.16L133.41-18.16Q133.55-16.36 133.6-14.15 133.65-11.94 133.6-9.7 133.55-7.47 133.41-5.62L133.41-5.62Q133.28-2.47 131.68-1.09 130.09 0.29 126.08 0.29ZM126.08-2.44L126.08-2.44Q128.33-2.44 129.28-2.99 130.23-3.54 130.3-4.81L130.3-4.81Q130.55-8.62 130.55-11.89 130.55-15.16 130.3-18.97L130.3-18.97Q130.23-20.26 129.3-20.8 128.38-21.34 126.08-21.34L126.08-21.34Q123.79-21.34 122.85-20.8 121.91-20.26 121.83-18.97L121.83-18.97Q121.61-15.16 121.6-11.88 121.59-8.59 121.83-4.81L121.83-4.81Q121.88-3.54 122.87-2.99 123.86-2.44 126.08-2.44ZM143.17 0.29L143.17 0.29Q140.43 0.29 139.05-0.93 137.68-2.15 137.68-4.96L137.68-4.96 137.68-23.75 140.8-23.75 140.8-4.69Q140.8-3.49 141.56-2.93 142.31-2.37 144.02-2.37L144.02-2.37Q145.76-2.37 147.06-2.95 148.37-3.54 148.98-4.59L148.98-4.59 148.98-23.75 152.15-23.75 152.15 0 148.98 0 148.98-2.25 148.32-2.25Q146.71 0.29 143.17 0.29ZM159.87-19.19L159.87 0 156.72 0 156.72-23.75 159.87-23.75 159.87-21.53 160.62-21.53Q161.38-22.75 162.61-23.41 163.84-24.07 165.72-24.07L165.72-24.07Q168.48-24.07 169.83-22.86 171.17-21.66 171.17-18.82L171.17-18.82 171.17 0 168.04 0 168.04-19.09Q168.04-20.31 167.27-20.86 166.51-21.41 164.8-21.41L164.8-21.41Q163.09-21.41 161.79-20.83 160.5-20.24 159.87-19.19L159.87-19.19ZM180.86 0.29L180.86 0.29Q178.1 0.29 176.76-0.93 175.41-2.15 175.34-4.96L175.34-4.96Q175.24-6.96 175.21-9.35 175.17-11.74 175.21-14.21 175.24-16.67 175.34-18.82L175.34-18.82Q175.41-21.66 176.79-22.86 178.17-24.07 180.91-24.07L180.91-24.07Q182.93-24.07 184.09-23.45 185.25-22.83 186.11-21.53L186.11-21.53 186.74-21.53 186.74-31.69 189.87-31.69 189.87 0 186.74 0 186.74-2.25 186.03-2.25Q185.2-1.03 184.04-0.37 182.89 0.29 180.86 0.29ZM181.76-2.37L181.76-2.37Q185.45-2.37 186.74-4.59L186.74-4.59 186.74-19.19Q185.47-21.41 181.79-21.41L181.79-21.41Q180.08-21.41 179.31-20.86 178.54-20.31 178.52-19.09L178.52-19.09Q178.37-15.43 178.39-11.66 178.42-7.89 178.52-4.69L178.52-4.69Q178.56-3.49 179.31-2.93 180.05-2.37 181.76-2.37Z" opacity="1" transform="matrix(1,0,0,1,0,0)" fill="#fc8b5e" class="wordmark-text-0" data-fill-palette-color="primary" id="text-0"></path></svg></g></svg></g></svg></g></svg></g><g transform="matrix(1,0,0,1,117.0419250869096,0)"><svg viewBox="0 0 161.43614982618072 161.43614982618072" height="161.43614982618072" width="161.43614982618072"><g><svg></svg></g><g id="icon-0"><svg viewBox="0 0 161.43614982618072 161.43614982618072" height="161.43614982618072" width="161.43614982618072"><g><path d="M0 80.718c0-44.579 36.139-80.718 80.718-80.718 44.579 0 80.718 36.139 80.718 80.718 0 44.579-36.139 80.718-80.718 80.718-44.579 0-80.718-36.139-80.718-80.718zM80.718 155.353c41.22 0 74.635-33.415 74.635-74.635 0-41.22-33.415-74.635-74.635-74.635-41.22 0-74.635 33.415-74.635 74.635 0 41.22 33.415 74.635 74.635 74.635z" data-fill-palette-color="accent" fill="#fc8b5e" stroke="transparent"></path></g><g transform="matrix(1,0,0,1,35.69947060430747,36.58525272668224)"><svg viewBox="0 0 90.03720861756578 88.26564437281624" height="88.26564437281624" width="90.03720861756578"><g><svg xmlns="http://www.w3.org/2000/svg" xmlns:xlink="http://www.w3.org/1999/xlink" version="1.1" x="0" y="0" viewBox="4.752 5.601980548456584 86.5 84.79803356274931" enable-background="new 0 0 96 96" xml:space="preserve" height="88.26564437281624" width="90.03720861756578" class="icon-dxe-0" data-fill-palette-color="accent" id="dxe-0"><path d="M72.43 32.428A5.5 5.5 0 0 0 74.069 28.512C74.069 25.472 71.595 22.998 68.555 22.998S63.041 25.472 63.041 28.512 65.515 34.026 68.555 34.026A5.5 5.5 0 0 0 71.227 33.332C71.325 33.492 71.429 33.649 71.524 33.811L72.819 33.055C72.695 32.844 72.56 32.637 72.43 32.428M70.398 32.056C69.843 32.346 69.222 32.526 68.554 32.526 66.341 32.526 64.54 30.725 64.54 28.512S66.341 24.498 68.554 24.498 72.568 26.299 72.568 28.512A3.98 3.98 0 0 1 71.577 31.124C71.247 31.505 70.85 31.819 70.398 32.056" fill="#fc8b5e" data-fill-palette-color="accent"></path><path d="M61.268 72.416C61.004 72.568 60.734 72.709 60.464 72.854A4.17 4.17 0 0 0 57.051 71.073C54.744 71.073 52.867 72.949 52.867 75.255S54.744 79.437 57.051 79.437A4.187 4.187 0 0 0 61.233 75.255C61.233 74.897 61.173 74.555 61.088 74.222 61.401 74.056 61.714 73.892 62.02 73.714zM57.051 77.936A2.68 2.68 0 0 1 54.799 76.703 2.66 2.66 0 0 1 54.368 75.264L54.367 75.255A2.686 2.686 0 0 1 57.051 72.573C57.875 72.573 58.604 72.955 59.097 73.542 59.418 73.925 59.632 74.396 59.699 74.916 59.714 75.028 59.733 75.139 59.733 75.255A2.687 2.687 0 0 1 57.051 77.936" fill="#fc8b5e" data-fill-palette-color="accent"></path><path d="M47.182 76.197L47.184 77.697A30 30 0 0 0 50.285 77.534L50.129 76.042C49.157 76.145 48.167 76.196 47.182 76.197" fill="#fc8b5e" data-fill-palette-color="accent"></path><path d="M73.977 56.711L75.405 57.174C75.724 56.189 75.994 55.178 76.206 54.171L74.739 53.86A29 29 0 0 1 73.977 56.711" fill="#fc8b5e" data-fill-palette-color="accent"></path><path d="M75.348 48C75.348 48.985 75.297 49.977 75.196 50.945L76.688 51.101A30 30 0 0 0 76.848 47.999V47.88H75.348z" fill="#fc8b5e" data-fill-palette-color="accent"></path><path d="M68.114 66.858L69.229 67.862A30 30 0 0 0 71.184 65.447L69.971 64.566A29 29 0 0 1 68.114 66.858" fill="#fc8b5e" data-fill-palette-color="accent"></path><path d="M63.738 70.805L64.621 72.018C65.459 71.408 66.27 70.748 67.033 70.06L66.029 68.947A28 28 0 0 1 63.738 70.805" fill="#fc8b5e" data-fill-palette-color="accent"></path><path d="M25.032 28.185A30 30 0 0 0 23.082 30.604L24.297 31.483A28 28 0 0 1 26.15 29.187z" fill="#fc8b5e" data-fill-palette-color="accent"></path><path d="M21.455 62.895A30 30 0 0 0 23.153 65.497L24.364 64.612A28 28 0 0 1 22.752 62.143z" fill="#fc8b5e" data-fill-palette-color="accent"></path><path d="M26.226 66.899L25.113 67.905A30 30 0 0 0 27.313 70.098L28.315 68.983A28 28 0 0 1 26.226 66.899" fill="#fc8b5e" data-fill-palette-color="accent"></path><path d="M19.101 45.112L17.609 44.962A30 30 0 0 0 17.456 48V48.062L18.956 48C18.955 47.039 19.004 46.067 19.101 45.112" fill="#fc8b5e" data-fill-palette-color="accent"></path><path d="M18.918 57.231A29 29 0 0 0 20.037 60.13L21.406 59.517A28 28 0 0 1 20.343 56.766z" fill="#fc8b5e" data-fill-palette-color="accent"></path><path d="M19.114 51.006L17.622 51.164C17.731 52.194 17.895 53.227 18.11 54.231L19.577 53.918A29 29 0 0 1 19.114 51.006" fill="#fc8b5e" data-fill-palette-color="accent"></path><path d="M75.185 44.938L76.675 44.776A30 30 0 0 0 76.181 41.71L74.714 42.026C74.919 42.978 75.077 43.957 75.185 44.938" fill="#fc8b5e" data-fill-palette-color="accent"></path><path d="M29.729 72.053C30.569 72.661 31.446 73.231 32.335 73.743L33.085 72.444A29 29 0 0 1 30.609 70.838z" fill="#fc8b5e" data-fill-palette-color="accent"></path><path d="M71.58 62.093L72.879 62.843C73.398 61.947 73.872 61.015 74.291 60.074L72.92 59.465A29 29 0 0 1 71.58 62.093" fill="#fc8b5e" data-fill-palette-color="accent"></path><path d="M41.012 77.063C42.019 77.274 43.052 77.435 44.081 77.542L44.235 76.05A28 28 0 0 1 41.32 75.595z" fill="#fc8b5e" data-fill-palette-color="accent"></path><path d="M35.105 75.153C36.045 75.571 37.022 75.944 38.008 76.263L38.469 74.835A28 28 0 0 1 35.714 73.781z" fill="#fc8b5e" data-fill-palette-color="accent"></path><path d="M47.063 19.805L47.059 18.305C46.022 18.308 44.978 18.365 43.957 18.474L44.117 19.966C45.087 19.861 46.078 19.808 47.063 19.805" fill="#fc8b5e" data-fill-palette-color="accent"></path><path d="M59.142 20.824A30 30 0 0 0 56.238 19.72L55.779 21.148A28 28 0 0 1 58.537 22.197z" fill="#fc8b5e" data-fill-palette-color="accent"></path><path d="M53.231 18.927A30 30 0 0 0 50.161 18.455L50.011 19.947A29 29 0 0 1 52.927 20.395z" fill="#fc8b5e" data-fill-palette-color="accent"></path><path d="M20.308 39.347L18.88 38.888A30 30 0 0 0 18.084 41.892L19.553 42.199C19.752 41.242 20.006 40.283 20.308 39.347" fill="#fc8b5e" data-fill-palette-color="accent"></path><path d="M73.941 39.181L75.365 38.712A29 29 0 0 0 74.24 35.816L72.873 36.431C73.274 37.321 73.634 38.247 73.941 39.181" fill="#fc8b5e" data-fill-palette-color="accent"></path><path d="M41.205 20.433L40.891 18.966A29 29 0 0 0 37.892 19.777L38.359 21.203C39.291 20.896 40.249 20.638 41.205 20.433" fill="#fc8b5e" data-fill-palette-color="accent"></path><path d="M64.524 23.913A30 30 0 0 0 61.914 22.228L61.168 23.529A28 28 0 0 1 63.647 25.13z" fill="#fc8b5e" data-fill-palette-color="accent"></path><path d="M30.518 25.23L29.633 24.019A30 30 0 0 0 27.224 25.982L28.232 27.093A29 29 0 0 1 30.518 25.23" fill="#fc8b5e" data-fill-palette-color="accent"></path><path d="M22.694 33.959L21.393 33.211A30 30 0 0 0 19.987 35.982L21.358 36.589A29 29 0 0 1 22.694 33.959" fill="#fc8b5e" data-fill-palette-color="accent"></path><path d="M35.608 22.268L34.993 20.899A30 30 0 0 0 32.23 22.319L32.986 23.616A28 28 0 0 1 35.608 22.268" fill="#fc8b5e" data-fill-palette-color="accent"></path><path d="M66.281 52.897C66.281 49.215 65.228 45.66 63.251 42.582L63.256 42.564 63.063 42.276 62.161 40.926 62.135 41.018A19.04 19.04 0 0 0 52.669 34.6L52.7 34.555 51.634 34.3 51.135 34.18 51.125 34.194A19.5 19.5 0 0 0 48.244 33.799C48.47 32.989 48.601 32.269 48.601 31.689 48.601 27.015 44.798 23.213 40.124 23.213 35.451 23.213 31.649 27.015 31.649 31.689 31.649 33.344 32.7 36.115 34.032 38.963A19.04 19.04 0 0 0 28.11 51.279L28.076 51.28 28.043 51.985 28.006 52.781H28.022C28.022 52.82 28.019 52.858 28.019 52.897 28.019 59.177 31.056 64.963 36.176 68.551L36.159 68.572 36.87 69.027 36.883 69.035 37.432 69.386 37.447 69.367A19.06 19.06 0 0 0 47.152 72.028C57.7 72.028 66.281 63.446 66.281 52.897M33.15 31.688A6.983 6.983 0 0 1 40.125 24.712C43.972 24.712 47.102 27.841 47.102 31.688 47.102 32.233 46.951 32.955 46.695 33.789 46.62 34.033 46.533 34.289 46.441 34.552 46.354 34.799 46.259 35.053 46.159 35.314 44.695 39.105 41.86 44.249 40.126 47.195 38.96 45.215 37.296 42.238 35.884 39.347A72 72 0 0 1 35.551 38.654 64 64 0 0 1 35.213 37.94C34.025 35.369 33.15 33.017 33.15 31.688M34.725 40.399C36.842 44.684 39.304 48.75 39.485 49.045L40.126 50.099 40.767 49.045C41.021 48.628 45.794 40.747 47.763 35.293 48.59 35.321 49.417 35.394 50.239 35.539 50.171 35.652 50.109 35.763 50.045 35.874 50.002 35.949 49.956 36.024 49.915 36.099 49.801 36.303 49.692 36.502 49.593 36.694 49.551 36.774 49.517 36.845 49.478 36.923 49.416 37.043 49.356 37.163 49.301 37.276L49.178 37.535 49.066 37.776 48.964 38.003 48.882 38.191 48.809 38.36 48.754 38.495 48.711 38.599 48.674 38.693 48.553 39.012 48.713 39.313A31 31 0 0 1 49.154 40.178C49.624 41.141 50.026 42.104 50.054 42.436 49.941 42.858 49.976 43.494 50.04 44.464 50.072 44.961 50.128 45.793 50.114 45.913 49.832 46.297 47.909 47.231 47.51 47.3 46.307 47.3 44.907 50.497 44.808 50.898 44.58 51.812 45.186 52.771 45.887 53.88 46.089 54.201 46.302 54.537 46.501 54.885 46.895 55.573 46.777 57.059 46.566 58.15 45.467 58.025 43.666 57.712 42.7 57.109L42.608 57.051C41.106 56.113 40.279 55.597 39.772 54.25 39.091 52.432 36.667 51.669 34.751 51.349 34.492 51.307 33.884 51.249 31.585 51.249 31.194 51.249 30.787 51.251 30.375 51.254L29.92 51.258 29.596 51.261A17.54 17.54 0 0 1 34.725 40.399M38.028 66.478A17 17 0 0 0 37.308 67.217C37.249 67.281 37.193 67.336 37.134 67.404A17.56 17.56 0 0 1 29.519 52.899L29.52 52.764 29.918 52.759 30.346 52.755C30.767 52.752 31.187 52.75 31.585 52.75 33.709 52.75 34.326 52.8 34.505 52.83 36.597 53.179 38.041 53.907 38.367 54.777 39.053 56.6 40.211 57.324 41.813 58.324L41.904 58.381C43.662 59.48 46.965 59.697 47.104 59.706L47.717 59.744 47.875 59.15C47.966 58.809 48.734 55.775 47.801 54.14 47.59 53.772 47.366 53.417 47.153 53.079 46.747 52.434 46.189 51.553 46.261 51.261 46.414 50.645 47.353 49.107 47.723 48.772 48.64 48.581 51.177 47.434 51.497 46.468 51.637 46.047 51.601 45.395 51.533 44.364 51.501 43.867 51.445 43.035 51.497 42.832 51.524 42.75 51.571 42.607 51.536 42.301A4 4 0 0 0 51.503 42.087 5 5 0 0 0 51.349 41.508C51.162 40.933 50.818 40.109 50.198 38.919L50.314 38.65 50.325 38.628 50.455 38.339 50.513 38.217 50.629 37.972 50.71 37.807A15 15 0 0 1 50.934 37.368C50.977 37.284 51.023 37.199 51.069 37.113L51.185 36.9C51.231 36.817 51.28 36.732 51.329 36.647L51.466 36.412 51.608 36.18C51.662 36.092 51.715 36.005 51.771 35.917L51.79 35.889A17.58 17.58 0 0 1 61.625 42.83C61.564 43.054 61.507 43.275 61.451 43.489 61.317 44.006 61.138 44.698 61.019 44.937 60.388 45.387 60.499 46.463 60.693 48.321 60.777 49.13 60.918 50.484 60.797 50.801 60.539 51.444 58.63 52.956 56.847 52.956 56.1 52.956 55.705 53.273 55.505 53.539 54.943 54.286 55.258 55.37 55.622 56.625 55.855 57.43 56.097 58.261 56.097 58.956 56.097 60.451 55.68 61.548 55.477 61.994 54.672 62.303 52.268 63.276 49.409 64.899 48.203 65.584 47.143 65.903 46.072 65.903 45.799 65.903 45.531 65.882 45.266 65.846 44.471 65.737 43.697 65.482 42.834 65.199A45 45 0 0 0 41.919 64.905 2.4 2.4 0 0 0 41.375 64.807C41.333 64.805 41.289 64.812 41.247 64.812A2.6 2.6 0 0 0 40.806 64.837C40.751 64.847 40.695 64.865 40.639 64.877A3 3 0 0 0 40.211 64.996C40.148 65.019 40.085 65.051 40.022 65.078 39.88 65.138 39.738 65.203 39.591 65.284 39.523 65.322 39.452 65.368 39.383 65.411A7 7 0 0 0 38.946 65.701C38.872 65.756 38.796 65.816 38.72 65.876A8 8 0 0 0 38.028 66.478M47.152 70.528C44.076 70.528 41.078 69.73 38.423 68.214H38.422C38.591 68.028 38.757 67.857 38.92 67.696 38.957 67.66 38.992 67.63 39.028 67.594 39.158 67.47 39.286 67.351 39.411 67.244L39.534 67.142A6 6 0 0 1 39.998 66.792 4 4 0 0 1 40.316 66.595C40.353 66.574 40.39 66.553 40.426 66.535 40.529 66.482 40.626 66.441 40.721 66.407 40.753 66.395 40.786 66.381 40.819 66.371 40.916 66.342 41.007 66.325 41.095 66.315 41.119 66.313 41.146 66.305 41.169 66.304A0.9 0.9 0 0 1 41.475 66.336C41.779 66.43 42.074 66.526 42.364 66.621 43.584 67.021 44.736 67.4 46.069 67.4 47.392 67.4 48.726 67.007 50.146 66.201 53.477 64.309 56.239 63.305 56.267 63.295L56.522 63.203 56.659 62.97C56.697 62.906 57.595 61.352 57.595 58.953 57.595 58.045 57.311 57.066 57.061 56.204 56.883 55.59 56.614 54.661 56.66 54.475A0.5 0.5 0 0 1 56.846 54.453C59.055 54.453 61.63 52.75 62.189 51.354 62.431 50.75 62.349 49.745 62.185 48.162 62.112 47.457 62.004 46.423 62.055 46.034A1.4 1.4 0 0 0 62.282 45.735C62.303 45.699 62.324 45.656 62.345 45.616A5 5 0 0 0 62.537 45.157C62.589 45.006 62.641 44.841 62.692 44.656L62.705 44.615 62.711 44.594A17.55 17.55 0 0 1 64.783 52.894C64.781 62.619 56.873 70.528 47.152 70.528" fill="#fc8b5e" data-fill-palette-color="accent"></path><path d="M38.264 35.945C38.612 36.097 38.984 36.199 39.369 36.263 39.616 36.304 39.866 36.339 40.125 36.339A4.63 4.63 0 0 0 43.488 34.884C43.734 34.625 43.942 34.334 44.124 34.025A4.6 4.6 0 0 0 44.777 31.688 4.656 4.656 0 0 0 40.125 27.038 4.655 4.655 0 0 0 35.475 31.688 4.66 4.66 0 0 0 38.264 35.945M40.125 28.538C41.863 28.538 43.277 29.951 43.277 31.688S41.863 34.839 40.125 34.839C38.388 34.839 36.975 33.425 36.975 31.688S38.388 28.538 40.125 28.538" fill="#fc8b5e" data-fill-palette-color="accent"></path><path d="M88.153 58.795A42.3 42.3 0 0 0 89.55 48C89.55 24.621 70.529 5.602 47.15 5.602A42.15 42.15 0 0 0 23.744 12.671 6.26 6.26 0 0 0 19.265 10.785 6.285 6.285 0 0 0 12.986 17.064C12.986 18.584 13.529 19.978 14.429 21.066 8.387 28.396 4.752 37.781 4.752 48 4.752 61.529 11.129 73.59 21.026 81.359A4.1 4.1 0 0 0 20.613 83.14 4.187 4.187 0 0 0 24.795 87.322C26.083 87.322 27.223 86.724 27.99 85.805A42.1 42.1 0 0 0 47.15 90.4C62.885 90.4 76.635 81.778 83.952 69.016A5.5 5.5 0 0 0 85.709 69.306 5.55 5.55 0 0 0 91.252 63.763 5.54 5.54 0 0 0 88.153 58.795M19.266 12.285C20.507 12.285 21.629 12.772 22.48 13.551A4.8 4.8 0 0 1 23.411 14.729C23.804 15.423 24.046 16.212 24.046 17.065A4.785 4.785 0 0 1 19.267 21.846 4.74 4.74 0 0 1 16.509 20.956 4.8 4.8 0 0 1 15.44 19.9 4.74 4.74 0 0 1 14.488 17.064 4.78 4.78 0 0 1 19.266 12.285M27.387 83.793A2.67 2.67 0 0 1 26.629 85.086 2.67 2.67 0 0 1 24.795 85.822 2.685 2.685 0 0 1 22.113 83.14C22.113 82.843 22.173 82.563 22.262 82.295A2.7 2.7 0 0 1 23.116 81.064 2.65 2.65 0 0 1 24.794 80.457 2.686 2.686 0 0 1 27.476 83.141C27.477 83.367 27.44 83.583 27.387 83.793M47.15 88.9A40.64 40.64 0 0 1 28.73 84.5C28.878 84.071 28.976 83.619 28.976 83.141A4.19 4.19 0 0 0 24.794 78.957 4.16 4.16 0 0 0 21.896 80.137C12.38 72.641 6.252 61.026 6.252 48 6.252 38.179 9.733 29.156 15.525 22.099A6.24 6.24 0 0 0 19.265 23.346 6.286 6.286 0 0 0 25.544 17.065 6.23 6.23 0 0 0 24.658 13.866 40.65 40.65 0 0 1 47.149 7.102C69.702 7.102 88.049 25.449 88.049 48 88.049 51.563 87.589 55.02 86.729 58.317A5.5 5.5 0 0 0 85.708 58.218 5.55 5.55 0 0 0 80.163 63.763C80.163 65.67 81.132 67.355 82.602 68.353 75.535 80.619 62.296 88.9 47.15 88.9M85.709 67.807C85.357 67.807 85.023 67.748 84.698 67.663A4 4 0 0 1 83.34 67.025 4.03 4.03 0 0 1 81.664 63.763 4.05 4.05 0 0 1 85.709 59.718 4 4 0 0 1 86.314 59.78C86.825 59.857 87.3 60.03 87.73 60.281 88.932 60.983 89.751 62.273 89.751 63.763A4.047 4.047 0 0 1 85.709 67.807" fill="#fc8b5e" data-fill-palette-color="accent"></path></svg></g></svg></g></svg></g></svg></g><g></g></svg></g><defs></defs></svg><rect width="374.9781823618844" height="247.2" fill="none" stroke="none" visibility="hidden"></rect></g></svg></g></svg>